<?xml version="1.0" encoding="utf-8"?>
<!-- Generator: Adobe Illustrator 22.1.0, SVG Export Plug-In . SVG Version: 6.00 Build 0)  -->
<svg version="1.1" id="Calque_1" xmlns="http://www.w3.org/2000/svg" xmlns:xlink="http://www.w3.org/1999/xlink" x="0px" y="0px"
	 viewBox="0 0 3180.6 2690.2" style="enable-background:new 0 0 3180.6 2690.2;" xml:space="preserve">
<style type="text/css">
	.st0{fill:none;}
	.st1{fill:#0D203D;}
	.st2{fill:url(#Nouveau_motif);}
</style>
<pattern  x="960.6" y="182.8" width="1634.6" height="914" patternUnits="userSpaceOnUse" id="Nouveau_motif" viewBox="546 -1829 1634.6 914" style="overflow:visible;">
	<g>
		<rect x="546" y="-1829" class="st0" width="1634.6" height="914"/>
		<g>
			<polygon class="st1" points="1966.9,-1186.5 1971.8,-1160.9 1975.4,-1170.7 1973.9,-1238.4 			"/>
			<polygon class="st1" points="2157.2,-1217.7 2142.1,-1256.5 2086.3,-1298.9 2071,-1289.7 2118.9,-1227.6 			"/>
			<polygon class="st1" points="2062,-1153.7 2109,-1222.6 2109,-1222.6 2061.1,-1284.8 1984.3,-1255.4 1986.1,-1173.9 			"/>
			<polygon class="st1" points="1984.2,-1163.2 1975.8,-1140.2 1975.9,-1140.1 2036.8,-1102.1 2081.3,-1106.3 2060.7,-1142.8 			"/>
			<polygon class="st1" points="2118.1,-1216.6 2070.7,-1147.2 2092.3,-1108.8 2146,-1142.4 2160.8,-1205.6 2118.1,-1216.6 			"/>
			<polygon class="st1" points="2250.9,-859.9 2225.8,-957.8 2155,-885.9 			"/>
			<polygon class="st1" points="2204.4,-995.7 2145.9,-979.7 2218.2,-974.7 			"/>
			<polygon class="st1" points="2216.5,-963.8 2121.2,-970.6 2147,-893.5 			"/>
			<polygon class="st1" points="2113.4,-959.9 2084.6,-873.5 2137.7,-887 			"/>
			<polygon class="st1" points="1741,-946.8 1904.5,-890.7 1805.9,-962.7 			"/>
			<polygon class="st1" points="1814.2,-970.1 1920.8,-892.1 1878.6,-1075.4 			"/>
			<path class="st1" d="M2453.7-1373l273,458l-273,458h-546l-273-458l273-458H2453.7z M1717.2-943.5l211.4,72.4
				c1.8,0.6,3.4,0.2,4.8-0.8c1.6-1.1,2.5-3.2,2-5.4l-50.1-218.2c-0.8-3.7-5.2-5.3-8.2-3.2c-0.2,0.1-0.4,0.3-0.5,0.4l-161.2,146
				C1712.5-949.7,1713.4-944.7,1717.2-943.5z M2017.4-690.7l-8.3-37.7c-0.7-2.5-2.6-4.7-5.3-5.2l-130.4-28.9
				c-2.5-0.7-5.2,0.2-6.9,2.2c-0.5,0.7-0.9,1.5-1.2,2.1c-0.1,0.2-32.3,125.7-32.3,125.7c-0.3,1.4-0.3,2.8,0.1,4l11.5,34.4
				c0.7,2.2,2.6,4.1,4.9,4.6l132.7,30.2l1.9,0.4c2.8,0.6,5.3-0.4,7-2.4c0.4-0.5,0.7-0.8,0.9-1.5c0.1-0.5,0.4-1.1,0.5-1.6l24.8-123.7
				C2017.6-688.8,2017.5-689.8,2017.4-690.7z M2037.1-1091.3l50-4.7l3.9-0.3c1.3-0.1,2.6-0.6,3.8-1.3l2.9-1.8l54.9-34.3
				c0.9-0.6,1.8-1.4,2.4-2.2c0.7-0.9,1.2-2,1.4-3.1l15.6-66.5c0-0.2,0.1-0.4,0.1-0.6l0-0.1c0.2-1.5,0.1-3.1-0.5-4.5l-1.5-3.7l0,0
				l-18.2-46.6c-0.6-1.5-1.6-2.8-2.8-3.7l-57.1-43.4c-0.7-0.6-1.6-1-2.4-1.3l0,0c-1.7-0.6-3.5-0.6-5.3-0.1l-2,0.6l0,0l-52.1,15.7
				c-0.4,0.1-0.8,0.3-1.2,0.5l-55.5,26.2l-2.9,1.4c-1.3,0.6-2.5,1.6-3.3,2.7c-0.8,1.1-1.4,2.5-1.6,3.9l-0.1,0.8l-9.5,70.2
				c-0.1,0.9-0.1,1.9,0.1,2.8l8.4,43.7l0.8,4c0.3,1.2,0.7,2.3,1.4,3.3l0,0c0.6,1,1.5,1.8,2.5,2.4l62.3,38.8
				C2033.3-1091.6,2035.2-1091.1,2037.1-1091.3z M2166-783c1.5-0.4,92.3-28.6,92.3-28.6c1.7-0.4,3-1.7,3.5-3.5l37.5-108.9
				c0.9-1.9,0.4-4.3-1.3-5.6l-87.7-76.5c-1.3-1.3-3.2-1.7-5-1.1l-93.6,25.6c-1.7,0.4-3.2,1.7-3.7,3.5c0,0-36.2,108.3-36.8,110.2
				c-0.6,1.9-0.4,4.3,1.5,6.1c1.9,1.7,87.3,76.7,88.4,77.8S2164.5-782.6,2166-783z M2419.5-579.8l-38.1-142.9
				c-1.3-4.5-5.2-7.4-9.5-7.4c-0.9,0-1.7,0-2.6,0.4l-159,43.5c-5.4,1.3-8.4,6.9-6.7,12.3l47.2,147.1c1.3,4.1,5.2,6.7,9.3,6.7
				c1.1,0,1.9-0.2,3-0.4l149.9-47.4C2418-569.4,2420.8-574.8,2419.5-579.8z M2588.3-900.7l-96.6-57.9l-2.4-1.5
				c-0.5-0.4-1.2-0.6-1.8-0.8c-2.6-0.8-5.6-0.1-7.6,1.9c-0.3,0.3-0.4,0.5-0.6,0.9l-77.4,109.2c-2,2.8-1.7,6.8,0.5,9.5l50.1,67.6
				c0.7,0.8,1.6,1.5,2.4,1.8l105,47.2c3,1.4,6.3,0.6,8.6-1.8c0.1-0.2,0.4-0.5,0.5-0.7l77.1-105.9c2.2-3,2-7.1-0.8-10l-55.7-58.5
				C2589.2-900.1,2588.8-900.6,2588.3-900.7z M2489.5-1217c0,0-117.4-54.8-117.6-54.8c-0.6-0.2-1.5-0.4-2.4-0.4
				c-2.6,0-5,1.5-6.1,3.9l-60.4,119.1c-1.3,2.4-0.9,5.2,0.6,7.4l23.8,30.3c0.6,0.6,1.3,1.3,2.2,1.7l111.3,59.3
				c0.4,0.2,1.1,0.4,1.5,0.6c0.6,0.2,1.1,0.2,1.7,0.2c2.6,0,5-1.3,6.3-3.9l0.9-1.7l60.9-121.7c1.1-2.2,0.9-4.8-0.4-6.7l-19.3-30.8
				C2491.9-1215.5,2490.8-1216.4,2489.5-1217z"/>
		</g>
		<g>
			<path class="st1" d="M1636.4-916l273,458l-273,458h-546l-273-458l273-458H1636.4z M899.9-486.5l211.4,72.4
				c1.8,0.6,3.4,0.2,4.8-0.8c1.6-1.1,2.5-3.2,2-5.4l-50.1-218.2c-0.8-3.7-5.2-5.3-8.2-3.2c-0.2,0.1-0.4,0.3-0.5,0.4l-161.2,146
				C895.1-492.7,896.1-487.7,899.9-486.5z M1200.1-233.7l-8.3-37.7c-0.7-2.5-2.6-4.7-5.3-5.2l-130.4-28.9c-2.5-0.7-5.2,0.2-6.9,2.2
				c-0.5,0.7-0.9,1.5-1.2,2.1c-0.1,0.2-32.3,125.7-32.3,125.7c-0.3,1.4-0.3,2.8,0.1,4l11.5,34.4c0.7,2.2,2.6,4.1,4.9,4.6l132.7,30.2
				l1.9,0.4c2.8,0.6,5.3-0.4,7-2.4c0.4-0.5,0.7-0.8,0.9-1.5c0.1-0.5,0.4-1.1,0.5-1.6l24.8-123.7
				C1200.3-231.8,1200.2-232.8,1200.1-233.7z M1219.8-634.3l50-4.7l3.9-0.3c1.3-0.1,2.6-0.6,3.8-1.3l2.9-1.8l54.9-34.3
				c0.9-0.6,1.8-1.4,2.4-2.2c0.7-0.9,1.2-2,1.4-3.1l15.6-66.5c0-0.2,0.1-0.4,0.1-0.6l0-0.1c0.2-1.5,0.1-3.1-0.5-4.5l-1.5-3.7l0,0
				l-18.2-46.6c-0.6-1.5-1.6-2.8-2.8-3.7l-57.1-43.4c-0.7-0.6-1.6-1-2.4-1.3l0,0c-1.7-0.6-3.5-0.6-5.3-0.1l-2,0.6l0,0l-52.1,15.7
				c-0.4,0.1-0.8,0.3-1.2,0.5l-55.5,26.2l-2.9,1.4c-1.3,0.6-2.5,1.6-3.3,2.7c-0.8,1.1-1.4,2.5-1.6,3.9l-0.1,0.8l-9.5,70.2
				c-0.1,0.9-0.1,1.9,0.1,2.8l8.4,43.7l0.8,4c0.3,1.2,0.7,2.3,1.4,3.3l0,0c0.6,1,1.5,1.8,2.5,2.4l62.3,38.8
				C1216-634.6,1217.9-634.1,1219.8-634.3z M1348.7-326c1.5-0.4,92.3-28.6,92.3-28.6c1.7-0.4,3-1.7,3.5-3.5l37.5-108.9
				c0.9-1.9,0.4-4.3-1.3-5.6l-87.7-76.5c-1.3-1.3-3.2-1.7-5-1.1l-93.6,25.6c-1.7,0.4-3.2,1.7-3.7,3.5c0,0-36.2,108.3-36.8,110.2
				c-0.6,1.9-0.4,4.3,1.5,6.1c1.9,1.7,87.3,76.7,88.4,77.8S1347.2-325.6,1348.7-326z M1602.2-122.8L1564-265.7
				c-1.3-4.5-5.2-7.4-9.5-7.4c-0.9,0-1.7,0-2.6,0.4l-159,43.5c-5.4,1.3-8.4,6.9-6.7,12.3l47.2,147.1c1.3,4.1,5.2,6.7,9.3,6.7
				c1.1,0,1.9-0.2,3-0.4l149.9-47.4C1600.6-112.4,1603.5-117.8,1602.2-122.8z M1771-443.7l-96.6-57.9l-2.4-1.5
				c-0.5-0.4-1.2-0.6-1.8-0.8c-2.6-0.8-5.6-0.1-7.6,1.9c-0.3,0.3-0.4,0.5-0.6,0.9l-77.4,109.2c-2,2.8-1.7,6.8,0.5,9.5l50.1,67.6
				c0.7,0.8,1.6,1.5,2.4,1.8l105,47.2c3,1.4,6.3,0.6,8.6-1.8c0.1-0.2,0.4-0.5,0.5-0.7l77.1-105.9c2.2-3,2-7.1-0.8-10l-55.7-58.5
				C1771.9-443.1,1771.5-443.6,1771-443.7z M1672.1-760c0,0-117.4-54.8-117.6-54.8c-0.6-0.2-1.5-0.4-2.4-0.4c-2.6,0-5,1.5-6.1,3.9
				l-60.4,119.1c-1.3,2.4-0.9,5.2,0.6,7.4l23.8,30.3c0.6,0.6,1.3,1.3,2.2,1.7l111.3,59.3c0.4,0.2,1.1,0.4,1.5,0.6
				c0.6,0.2,1.1,0.2,1.7,0.2c2.6,0,5-1.3,6.3-3.9l0.9-1.7l60.9-121.7c1.1-2.2,0.9-4.8-0.4-6.7l-19.3-30.8
				C1674.5-758.5,1673.4-759.4,1672.1-760z"/>
		</g>
		<g>
			<polygon class="st1" points="616.3,-859.9 591.2,-957.8 520.4,-885.9 			"/>
			<polygon class="st1" points="569.7,-995.7 511.3,-979.7 583.6,-974.7 			"/>
			<polygon class="st1" points="652.7,-923.8 602.7,-956.3 625.4,-867.9 			"/>
			<polygon class="st1" points="581.9,-963.8 486.6,-970.6 512.3,-893.5 			"/>
			<polygon class="st1" points="851.3,-948.9 777.5,-844.6 821.8,-784.2 900.6,-894.5 			"/>
			<polygon class="st1" points="810.6,-1190 841,-1211.6 738.3,-1259.5 742.6,-1198 			"/>
			<polygon class="st1" points="818.4,-1083 867,-1179.8 850.9,-1205.3 817.6,-1181.5 			"/>
			<polygon class="st1" points="807.8,-1062 806.7,-1179.6 739.8,-1187.4 701.9,-1144.5 			"/>
			<polygon class="st1" points="732,-1194.7 728.6,-1243.9 680.9,-1149.9 691.7,-1149.3 			"/>
			<path class="st1" d="M819-1373l273,458L819-457H273L0-915l273-458H819z M82.6-943.5L294-871c1.8,0.6,3.4,0.2,4.8-0.8
				c1.6-1.1,2.5-3.2,2-5.4l-50.1-218.2c-0.8-3.7-5.2-5.3-8.2-3.2c-0.2,0.1-0.4,0.3-0.5,0.4l-161.2,146
				C77.8-949.7,78.7-944.7,82.6-943.5z M382.8-690.7l-8.3-37.7c-0.7-2.5-2.6-4.7-5.3-5.2l-130.4-28.9c-2.5-0.7-5.2,0.2-6.9,2.2
				c-0.5,0.7-0.9,1.5-1.2,2.1c-0.1,0.2-32.3,125.7-32.3,125.7c-0.3,1.4-0.3,2.8,0.1,4l11.5,34.4c0.7,2.2,2.6,4.1,4.9,4.6l132.7,30.2
				l1.9,0.4c2.8,0.6,5.3-0.4,7-2.4c0.4-0.5,0.7-0.8,0.9-1.5c0.1-0.5,0.4-1.1,0.5-1.6l24.8-123.7C383-688.8,382.9-689.8,382.8-690.7z
				 M402.4-1091.3l50-4.7l3.9-0.3c1.3-0.1,2.6-0.6,3.8-1.3l2.9-1.8l54.9-34.3c0.9-0.6,1.8-1.4,2.4-2.2c0.7-0.9,1.2-2,1.4-3.1
				l15.6-66.5c0-0.2,0.1-0.4,0.1-0.6l0-0.1c0.2-1.5,0.1-3.1-0.5-4.5l-1.5-3.7l0,0l-18.2-46.6c-0.6-1.5-1.6-2.8-2.8-3.7l-57.1-43.4
				c-0.7-0.6-1.6-1-2.4-1.3l0,0c-1.7-0.6-3.5-0.6-5.3-0.1l-2,0.6l0,0l-52.1,15.7c-0.4,0.1-0.8,0.3-1.2,0.5l-55.5,26.2l-2.9,1.4
				c-1.3,0.6-2.5,1.6-3.3,2.7c-0.8,1.1-1.4,2.5-1.6,3.9l-0.1,0.8l-9.5,70.2c-0.1,0.9-0.1,1.9,0.1,2.8l8.4,43.7l0.8,4
				c0.3,1.2,0.7,2.3,1.4,3.3l0,0c0.6,1,1.5,1.8,2.5,2.4l62.3,38.8C398.6-1091.6,400.5-1091.1,402.4-1091.3z M531.4-783
				c1.5-0.4,92.3-28.6,92.3-28.6c1.7-0.4,3-1.7,3.5-3.5L664.6-924c0.9-1.9,0.4-4.3-1.3-5.6l-87.7-76.5c-1.3-1.3-3.2-1.7-5-1.1
				L477-981.6c-1.7,0.4-3.2,1.7-3.7,3.5c0,0-36.2,108.3-36.8,110.2c-0.6,1.9-0.4,4.3,1.5,6.1c1.9,1.7,87.3,76.7,88.4,77.8
				S529.9-782.6,531.4-783z M784.8-579.8l-38.1-142.9c-1.3-4.5-5.2-7.4-9.5-7.4c-0.9,0-1.7,0-2.6,0.4l-159,43.5
				c-5.4,1.3-8.4,6.9-6.7,12.3l47.2,147.1c1.3,4.1,5.2,6.7,9.3,6.7c1.1,0,1.9-0.2,3-0.4l149.9-47.4
				C783.3-569.4,786.1-574.8,784.8-579.8z M953.7-900.7L857-958.6l-2.4-1.5c-0.5-0.4-1.2-0.6-1.8-0.8c-2.6-0.8-5.6-0.1-7.6,1.9
				c-0.3,0.3-0.4,0.5-0.6,0.9l-77.4,109.2c-2,2.8-1.7,6.8,0.5,9.5l50.1,67.6c0.7,0.8,1.6,1.5,2.4,1.8l105,47.2
				c3,1.4,6.3,0.6,8.6-1.8c0.1-0.2,0.4-0.5,0.5-0.7l77.1-105.9c2.2-3,2-7.1-0.8-10l-55.7-58.5C954.5-900.1,954.2-900.6,953.7-900.7z
				 M854.8-1217c0,0-117.4-54.8-117.6-54.8c-0.6-0.2-1.5-0.4-2.4-0.4c-2.6,0-5,1.5-6.1,3.9l-60.4,119.1c-1.3,2.4-0.9,5.2,0.6,7.4
				l23.8,30.3c0.6,0.6,1.3,1.3,2.2,1.7l111.3,59.3c0.4,0.2,1.1,0.4,1.5,0.6c0.6,0.2,1.1,0.2,1.7,0.2c2.6,0,5-1.3,6.3-3.9l0.9-1.7
				l60.9-121.7c1.1-2.2,0.9-4.8-0.4-6.7l-19.3-30.8C857.2-1215.5,856.1-1216.4,854.8-1217z"/>
		</g>
		<g>
			<polygon class="st1" points="2250.9,-1773.9 2225.8,-1871.8 2155,-1799.9 			"/>
			<polygon class="st1" points="2152,-1789.7 2168.2,-1711.3 2245.7,-1764.1 			"/>
			<polygon class="st1" points="2087.6,-1777.1 2156.1,-1716.9 2140.7,-1790.6 			"/>
			<polygon class="st1" points="2216.5,-1877.8 2121.2,-1884.6 2147,-1807.5 			"/>
			<polygon class="st1" points="2113.4,-1873.9 2084.6,-1787.5 2137.7,-1801 			"/>
			<polygon class="st1" points="1741,-1860.8 1904.5,-1804.7 1805.9,-1876.7 			"/>
			<polygon class="st1" points="1814.2,-1884.1 1920.8,-1806.1 1878.6,-1989.4 			"/>
			<polygon class="st1" points="1844.7,-1542 1854.2,-1513.4 1959.8,-1489.4 1884.2,-1552.6 			"/>
			<polygon class="st1" points="1919,-1621 1874.2,-1663.4 1846.1,-1553.6 1882.1,-1563.3 			"/>
			<polygon class="st1" points="1892.6,-1559.8 1982.8,-1484.3 1986.2,-1618.5 1929,-1616.4 			"/>
			<polygon class="st1" points="1928.3,-1627.1 1989,-1629.4 1995.4,-1638.2 1892.5,-1661 			"/>
			<path class="st1" d="M2453.7-2287l273,458l-273,458h-546l-273-458l273-458H2453.7z M1717.2-1857.5l211.4,72.4
				c1.8,0.6,3.4,0.2,4.8-0.8c1.6-1.1,2.5-3.2,2-5.4l-50.1-218.2c-0.8-3.7-5.2-5.3-8.2-3.2c-0.2,0.1-0.4,0.3-0.5,0.4l-161.2,146
				C1712.5-1863.7,1713.4-1858.7,1717.2-1857.5z M2017.4-1604.7l-8.3-37.7c-0.7-2.5-2.6-4.7-5.3-5.2l-130.4-28.9
				c-2.5-0.7-5.2,0.2-6.9,2.2c-0.5,0.7-0.9,1.5-1.2,2.1c-0.1,0.2-32.3,125.7-32.3,125.7c-0.3,1.4-0.3,2.8,0.1,4l11.5,34.4
				c0.7,2.2,2.6,4.1,4.9,4.6l132.7,30.2l1.9,0.4c2.8,0.6,5.3-0.4,7-2.4c0.4-0.5,0.7-0.8,0.9-1.5c0.1-0.5,0.4-1.1,0.5-1.6l24.8-123.7
				C2017.6-1602.8,2017.5-1603.8,2017.4-1604.7z M2037.1-2005.3l50-4.7l3.9-0.3c1.3-0.1,2.6-0.6,3.8-1.3l2.9-1.8l54.9-34.3
				c0.9-0.6,1.8-1.4,2.4-2.2c0.7-0.9,1.2-2,1.4-3.1l15.6-66.5c0-0.2,0.1-0.4,0.1-0.6l0-0.1c0.2-1.5,0.1-3.1-0.5-4.5l-1.5-3.7l0,0
				l-18.2-46.6c-0.6-1.5-1.6-2.8-2.8-3.7l-57.1-43.4c-0.7-0.6-1.6-1-2.4-1.3l0,0c-1.7-0.6-3.5-0.6-5.3-0.1l-2,0.6l0,0l-52.1,15.7
				c-0.4,0.1-0.8,0.3-1.2,0.5l-55.5,26.2l-2.9,1.4c-1.3,0.6-2.5,1.6-3.3,2.7c-0.8,1.1-1.4,2.5-1.6,3.9l-0.1,0.8l-9.5,70.2
				c-0.1,0.9-0.1,1.9,0.1,2.8l8.4,43.7l0.8,4c0.3,1.2,0.7,2.3,1.4,3.3l0,0c0.6,1,1.5,1.8,2.5,2.4l62.3,38.8
				C2033.3-2005.6,2035.2-2005.1,2037.1-2005.3z M2166-1697c1.5-0.4,92.3-28.6,92.3-28.6c1.7-0.4,3-1.7,3.5-3.5l37.5-108.9
				c0.9-1.9,0.4-4.3-1.3-5.6l-87.7-76.5c-1.3-1.3-3.2-1.7-5-1.1l-93.6,25.6c-1.7,0.4-3.2,1.7-3.7,3.5c0,0-36.2,108.3-36.8,110.2
				c-0.6,1.9-0.4,4.3,1.5,6.1c1.9,1.7,87.3,76.7,88.4,77.8S2164.5-1696.6,2166-1697z M2419.5-1493.8l-38.1-142.9
				c-1.3-4.5-5.2-7.4-9.5-7.4c-0.9,0-1.7,0-2.6,0.4l-159,43.5c-5.4,1.3-8.4,6.9-6.7,12.3l47.2,147.1c1.3,4.1,5.2,6.7,9.3,6.7
				c1.1,0,1.9-0.2,3-0.4l149.9-47.4C2418-1483.4,2420.8-1488.8,2419.5-1493.8z M2588.3-1814.7l-96.6-57.9l-2.4-1.5
				c-0.5-0.4-1.2-0.6-1.8-0.8c-2.6-0.8-5.6-0.1-7.6,1.9c-0.3,0.3-0.4,0.5-0.6,0.9l-77.4,109.2c-2,2.8-1.7,6.8,0.5,9.5l50.1,67.6
				c0.7,0.8,1.6,1.5,2.4,1.8l105,47.2c3,1.4,6.3,0.6,8.6-1.8c0.1-0.2,0.4-0.5,0.5-0.7l77.1-105.9c2.2-3,2-7.1-0.8-10l-55.7-58.5
				C2589.2-1814.1,2588.8-1814.6,2588.3-1814.7z M2489.5-2131c0,0-117.4-54.8-117.6-54.8c-0.6-0.2-1.5-0.4-2.4-0.4
				c-2.6,0-5,1.5-6.1,3.9l-60.4,119.1c-1.3,2.4-0.9,5.2,0.6,7.4l23.8,30.3c0.6,0.6,1.3,1.3,2.2,1.7l111.3,59.3
				c0.4,0.2,1.1,0.4,1.5,0.6c0.6,0.2,1.1,0.2,1.7,0.2c2.6,0,5-1.3,6.3-3.9l0.9-1.7l60.9-121.7c1.1-2.2,0.9-4.8-0.4-6.7l-19.3-30.8
				C2491.9-2129.5,2490.8-2130.4,2489.5-2131z"/>
		</g>
		<g>
			<polygon class="st1" points="1149.5,-1643.5 1154.5,-1617.9 1158,-1627.7 1156.5,-1695.4 			"/>
			<polygon class="st1" points="1339.9,-1674.7 1324.8,-1713.5 1269,-1755.9 1253.7,-1746.7 1301.6,-1684.6 			"/>
			<polygon class="st1" points="1244.7,-1610.7 1291.7,-1679.6 1291.7,-1679.6 1243.8,-1741.8 1167,-1712.4 1168.8,-1630.9 			"/>
			<polygon class="st1" points="1166.9,-1620.2 1158.5,-1597.2 1158.5,-1597.1 1219.5,-1559.1 1263.9,-1563.3 1243.4,-1599.8 			"/>
			<polygon class="st1" points="1300.7,-1673.6 1253.4,-1604.2 1274.9,-1565.8 1328.7,-1599.4 1343.5,-1662.6 1300.7,-1673.6 			"/>
			<polygon class="st1" points="1515.1,-1040.3 1590.2,-1038.7 1556.9,-1163.7 			"/>
			<polygon class="st1" points="1442.8,-990.2 1499.3,-1035.1 1402,-1117.6 			"/>
			<polygon class="st1" points="1399.4,-1133.8 1505.1,-1044.2 1549.3,-1174.8 			"/>
			<polygon class="st1" points="1433.6,-1316.9 1408.5,-1414.8 1337.7,-1342.9 			"/>
			<polygon class="st1" points="1387.1,-1452.7 1328.6,-1436.7 1400.9,-1431.7 			"/>
			<polygon class="st1" points="1470,-1380.8 1420,-1413.3 1442.7,-1324.9 			"/>
			<polygon class="st1" points="1434.3,-1277.7 1435.1,-1298.7 1379.9,-1261 			"/>
			<polygon class="st1" points="1334.6,-1332.7 1350.9,-1254.3 1428.4,-1307.1 			"/>
			<polygon class="st1" points="1270.3,-1320.1 1338.8,-1259.9 1323.4,-1333.6 			"/>
			<polygon class="st1" points="1399.2,-1420.8 1303.9,-1427.6 1329.7,-1350.5 			"/>
			<polygon class="st1" points="1296.1,-1416.9 1267.3,-1330.5 1320.4,-1344 			"/>
			<polygon class="st1" points="923.7,-1403.8 1087.2,-1347.7 988.6,-1419.7 			"/>
			<polygon class="st1" points="996.9,-1427.1 1103.5,-1349.1 1061.3,-1532.4 			"/>
			<polygon class="st1" points="1647.8,-1234.3 1744.9,-1190.5 1818.5,-1292.5 1726.7,-1344.8 			"/>
			<polygon class="st1" points="1668.6,-1405.9 1594.8,-1301.6 1639.1,-1241.2 1717.9,-1351.5 			"/>
			<polygon class="st1" points="1027.3,-1085 1036.9,-1056.4 1142.5,-1032.4 1066.9,-1095.6 			"/>
			<polygon class="st1" points="1101.7,-1164 1056.9,-1206.4 1028.8,-1096.6 1064.8,-1106.3 			"/>
			<polygon class="st1" points="1075.3,-1102.8 1165.5,-1027.3 1168.9,-1161.5 1111.7,-1159.4 			"/>
			<polygon class="st1" points="1111,-1170.1 1171.7,-1172.4 1178,-1181.2 1075.2,-1204 			"/>
			<polygon class="st1" points="1628,-1647 1658.3,-1668.6 1555.6,-1716.5 1560,-1655 			"/>
			<polygon class="st1" points="1635.8,-1540 1684.3,-1636.8 1668.3,-1662.3 1634.9,-1638.5 			"/>
			<polygon class="st1" points="1625.2,-1519 1624.1,-1636.6 1557.1,-1644.4 1519.2,-1601.5 			"/>
			<polygon class="st1" points="1549.4,-1651.7 1545.9,-1700.9 1498.2,-1606.9 1509.1,-1606.3 			"/>
			<path class="st1" d="M1636.4-1830l273,458l-273,458h-546l-273-458l273-458H1636.4z M899.9-1400.5l211.4,72.4
				c1.8,0.6,3.4,0.2,4.8-0.8c1.6-1.1,2.5-3.2,2-5.4l-50.1-218.2c-0.8-3.7-5.2-5.3-8.2-3.2c-0.2,0.1-0.4,0.3-0.5,0.4l-161.2,146
				C895.1-1406.7,896.1-1401.7,899.9-1400.5z M1200.1-1147.7l-8.3-37.7c-0.7-2.5-2.6-4.7-5.3-5.2l-130.4-28.9
				c-2.5-0.7-5.2,0.2-6.9,2.2c-0.5,0.7-0.9,1.5-1.2,2.1c-0.1,0.2-32.3,125.7-32.3,125.7c-0.3,1.4-0.3,2.8,0.1,4l11.5,34.4
				c0.7,2.2,2.6,4.1,4.9,4.6l132.7,30.2l1.9,0.4c2.8,0.6,5.3-0.4,7-2.4c0.4-0.5,0.7-0.8,0.9-1.5c0.1-0.5,0.4-1.1,0.5-1.6l24.8-123.7
				C1200.3-1145.8,1200.2-1146.8,1200.1-1147.7z M1219.8-1548.3l50-4.7l3.9-0.3c1.3-0.1,2.6-0.6,3.8-1.3l2.9-1.8l54.9-34.3
				c0.9-0.6,1.8-1.4,2.4-2.2c0.7-0.9,1.2-2,1.4-3.1l15.6-66.5c0-0.2,0.1-0.4,0.1-0.6l0-0.1c0.2-1.5,0.1-3.1-0.5-4.5l-1.5-3.7l0,0
				l-18.2-46.6c-0.6-1.5-1.6-2.8-2.8-3.7l-57.1-43.4c-0.7-0.6-1.6-1-2.4-1.3l0,0c-1.7-0.6-3.5-0.6-5.3-0.1l-2,0.6l0,0l-52.1,15.7
				c-0.4,0.1-0.8,0.3-1.2,0.5l-55.5,26.2l-2.9,1.4c-1.3,0.6-2.5,1.6-3.3,2.7c-0.8,1.1-1.4,2.5-1.6,3.9l-0.1,0.8l-9.5,70.2
				c-0.1,0.9-0.1,1.9,0.1,2.8l8.4,43.7l0.8,4c0.3,1.2,0.7,2.3,1.4,3.3l0,0c0.6,1,1.5,1.8,2.5,2.4l62.3,38.8
				C1216-1548.6,1217.9-1548.1,1219.8-1548.3z M1348.7-1240c1.5-0.4,92.3-28.6,92.3-28.6c1.7-0.4,3-1.7,3.5-3.5l37.5-108.9
				c0.9-1.9,0.4-4.3-1.3-5.6l-87.7-76.5c-1.3-1.3-3.2-1.7-5-1.1l-93.6,25.6c-1.7,0.4-3.2,1.7-3.7,3.5c0,0-36.2,108.3-36.8,110.2
				c-0.6,1.9-0.4,4.3,1.5,6.1c1.9,1.7,87.3,76.7,88.4,77.8S1347.2-1239.6,1348.7-1240z M1602.2-1036.8l-38.1-142.9
				c-1.3-4.5-5.2-7.4-9.5-7.4c-0.9,0-1.7,0-2.6,0.4l-159,43.5c-5.4,1.3-8.4,6.9-6.7,12.3l47.2,147.1c1.3,4.1,5.2,6.7,9.3,6.7
				c1.1,0,1.9-0.2,3-0.4l149.9-47.4C1600.6-1026.4,1603.5-1031.8,1602.2-1036.8z M1771-1357.7l-96.6-57.9l-2.4-1.5
				c-0.5-0.4-1.2-0.6-1.8-0.8c-2.6-0.8-5.6-0.1-7.6,1.9c-0.3,0.3-0.4,0.5-0.6,0.9l-77.4,109.2c-2,2.8-1.7,6.8,0.5,9.5l50.1,67.6
				c0.7,0.8,1.6,1.5,2.4,1.8l105,47.2c3,1.4,6.3,0.6,8.6-1.8c0.1-0.2,0.4-0.5,0.5-0.7l77.1-105.9c2.2-3,2-7.1-0.8-10l-55.7-58.5
				C1771.9-1357.1,1771.5-1357.6,1771-1357.7z M1672.1-1674c0,0-117.4-54.8-117.6-54.8c-0.6-0.2-1.5-0.4-2.4-0.4
				c-2.6,0-5,1.5-6.1,3.9l-60.4,119.1c-1.3,2.4-0.9,5.2,0.6,7.4l23.8,30.3c0.6,0.6,1.3,1.3,2.2,1.7l111.3,59.3
				c0.4,0.2,1.1,0.4,1.5,0.6c0.6,0.2,1.1,0.2,1.7,0.2c2.6,0,5-1.3,6.3-3.9l0.9-1.7l60.9-121.7c1.1-2.2,0.9-4.8-0.4-6.7l-19.3-30.8
				C1674.5-1672.5,1673.4-1673.4,1672.1-1674z"/>
		</g>
		<g>
			<polygon class="st1" points="697.8,-1497.3 772.9,-1495.7 739.6,-1620.7 			"/>
			<polygon class="st1" points="625.4,-1447.2 682,-1492.1 584.7,-1574.6 			"/>
			<polygon class="st1" points="582.1,-1590.8 687.8,-1501.2 732,-1631.8 			"/>
			<polygon class="st1" points="616.3,-1773.9 591.2,-1871.8 520.4,-1799.9 			"/>
			<polygon class="st1" points="652.7,-1837.8 602.7,-1870.3 625.4,-1781.9 			"/>
			<polygon class="st1" points="616.9,-1734.7 617.8,-1755.7 562.6,-1718 			"/>
			<polygon class="st1" points="517.3,-1789.7 533.6,-1711.3 611.1,-1764.1 			"/>
			<polygon class="st1" points="581.9,-1877.8 486.6,-1884.6 512.3,-1807.5 			"/>
			<polygon class="st1" points="830.5,-1691.3 927.5,-1647.5 1001.2,-1749.5 909.3,-1801.8 			"/>
			<polygon class="st1" points="851.3,-1862.9 777.5,-1758.6 821.8,-1698.2 900.6,-1808.5 			"/>
			<path class="st1" d="M819-2287l273,458l-273,458H273L0-1829l273-458H819z M82.6-1857.5L294-1785c1.8,0.6,3.4,0.2,4.8-0.8
				c1.6-1.1,2.5-3.2,2-5.4l-50.1-218.2c-0.8-3.7-5.2-5.3-8.2-3.2c-0.2,0.1-0.4,0.3-0.5,0.4l-161.2,146
				C77.8-1863.7,78.7-1858.7,82.6-1857.5z M382.8-1604.7l-8.3-37.7c-0.7-2.5-2.6-4.7-5.3-5.2l-130.4-28.9c-2.5-0.7-5.2,0.2-6.9,2.2
				c-0.5,0.7-0.9,1.5-1.2,2.1c-0.1,0.2-32.3,125.7-32.3,125.7c-0.3,1.4-0.3,2.8,0.1,4l11.5,34.4c0.7,2.2,2.6,4.1,4.9,4.6l132.7,30.2
				l1.9,0.4c2.8,0.6,5.3-0.4,7-2.4c0.4-0.5,0.7-0.8,0.9-1.5c0.1-0.5,0.4-1.1,0.5-1.6l24.8-123.7
				C383-1602.8,382.9-1603.8,382.8-1604.7z M402.4-2005.3l50-4.7l3.9-0.3c1.3-0.1,2.6-0.6,3.8-1.3l2.9-1.8l54.9-34.3
				c0.9-0.6,1.8-1.4,2.4-2.2c0.7-0.9,1.2-2,1.4-3.1l15.6-66.5c0-0.2,0.1-0.4,0.1-0.6l0-0.1c0.2-1.5,0.1-3.1-0.5-4.5l-1.5-3.7l0,0
				l-18.2-46.6c-0.6-1.5-1.6-2.8-2.8-3.7l-57.1-43.4c-0.7-0.6-1.6-1-2.4-1.3l0,0c-1.7-0.6-3.5-0.6-5.3-0.1l-2,0.6l0,0l-52.1,15.7
				c-0.4,0.1-0.8,0.3-1.2,0.5l-55.5,26.2l-2.9,1.4c-1.3,0.6-2.5,1.6-3.3,2.7c-0.8,1.1-1.4,2.5-1.6,3.9l-0.1,0.8l-9.5,70.2
				c-0.1,0.9-0.1,1.9,0.1,2.8l8.4,43.7l0.8,4c0.3,1.2,0.7,2.3,1.4,3.3l0,0c0.6,1,1.5,1.8,2.5,2.4l62.3,38.8
				C398.6-2005.6,400.5-2005.1,402.4-2005.3z M531.4-1697c1.5-0.4,92.3-28.6,92.3-28.6c1.7-0.4,3-1.7,3.5-3.5l37.5-108.9
				c0.9-1.9,0.4-4.3-1.3-5.6l-87.7-76.5c-1.3-1.3-3.2-1.7-5-1.1l-93.6,25.6c-1.7,0.4-3.2,1.7-3.7,3.5c0,0-36.2,108.3-36.8,110.2
				c-0.6,1.9-0.4,4.3,1.5,6.1c1.9,1.7,87.3,76.7,88.4,77.8S529.9-1696.6,531.4-1697z M784.8-1493.8l-38.1-142.9
				c-1.3-4.5-5.2-7.4-9.5-7.4c-0.9,0-1.7,0-2.6,0.4l-159,43.5c-5.4,1.3-8.4,6.9-6.7,12.3l47.2,147.1c1.3,4.1,5.2,6.7,9.3,6.7
				c1.1,0,1.9-0.2,3-0.4l149.9-47.4C783.3-1483.4,786.1-1488.8,784.8-1493.8z M953.7-1814.7l-96.6-57.9l-2.4-1.5
				c-0.5-0.4-1.2-0.6-1.8-0.8c-2.6-0.8-5.6-0.1-7.6,1.9c-0.3,0.3-0.4,0.5-0.6,0.9l-77.4,109.2c-2,2.8-1.7,6.8,0.5,9.5l50.1,67.6
				c0.7,0.8,1.6,1.5,2.4,1.8l105,47.2c3,1.4,6.3,0.6,8.6-1.8c0.1-0.2,0.4-0.5,0.5-0.7l77.1-105.9c2.2-3,2-7.1-0.8-10l-55.7-58.5
				C954.5-1814.1,954.2-1814.6,953.7-1814.7z M854.8-2131c0,0-117.4-54.8-117.6-54.8c-0.6-0.2-1.5-0.4-2.4-0.4c-2.6,0-5,1.5-6.1,3.9
				l-60.4,119.1c-1.3,2.4-0.9,5.2,0.6,7.4l23.8,30.3c0.6,0.6,1.3,1.3,2.2,1.7l111.3,59.3c0.4,0.2,1.1,0.4,1.5,0.6
				c0.6,0.2,1.1,0.2,1.7,0.2c2.6,0,5-1.3,6.3-3.9l0.9-1.7l60.9-121.7c1.1-2.2,0.9-4.8-0.4-6.7l-19.3-30.8
				C857.2-2129.5,856.1-2130.4,854.8-2131z"/>
		</g>
		<g>
			<path class="st1" d="M1636.4-2744l273,458l-273,458h-546l-273-458l273-458H1636.4z M899.9-2314.5l211.4,72.4
				c1.8,0.6,3.4,0.2,4.8-0.8c1.6-1.1,2.5-3.2,2-5.4l-50.1-218.2c-0.8-3.7-5.2-5.3-8.2-3.2c-0.2,0.1-0.4,0.3-0.5,0.4l-161.2,146
				C895.1-2320.7,896.1-2315.7,899.9-2314.5z M1200.1-2061.7l-8.3-37.7c-0.7-2.5-2.6-4.7-5.3-5.2l-130.4-28.9
				c-2.5-0.7-5.2,0.2-6.9,2.2c-0.5,0.7-0.9,1.5-1.2,2.1c-0.1,0.2-32.3,125.7-32.3,125.7c-0.3,1.4-0.3,2.8,0.1,4l11.5,34.4
				c0.7,2.2,2.6,4.1,4.9,4.6l132.7,30.2l1.9,0.4c2.8,0.6,5.3-0.4,7-2.4c0.4-0.5,0.7-0.8,0.9-1.5c0.1-0.5,0.4-1.1,0.5-1.6l24.8-123.7
				C1200.3-2059.8,1200.2-2060.8,1200.1-2061.7z M1219.8-2462.3l50-4.7l3.9-0.3c1.3-0.1,2.6-0.6,3.8-1.3l2.9-1.8l54.9-34.3
				c0.9-0.6,1.8-1.4,2.4-2.2c0.7-0.9,1.2-2,1.4-3.1l15.6-66.5c0-0.2,0.1-0.4,0.1-0.6l0-0.1c0.2-1.5,0.1-3.1-0.5-4.5l-1.5-3.7l0,0
				l-18.2-46.6c-0.6-1.5-1.6-2.8-2.8-3.7l-57.1-43.4c-0.7-0.6-1.6-1-2.4-1.3l0,0c-1.7-0.6-3.5-0.6-5.3-0.1l-2,0.6l0,0l-52.1,15.7
				c-0.4,0.1-0.8,0.3-1.2,0.5l-55.5,26.2l-2.9,1.4c-1.3,0.6-2.5,1.6-3.3,2.7c-0.8,1.1-1.4,2.5-1.6,3.9l-0.1,0.8l-9.5,70.2
				c-0.1,0.9-0.1,1.9,0.1,2.8l8.4,43.7l0.8,4c0.3,1.2,0.7,2.3,1.4,3.3l0,0c0.6,1,1.5,1.8,2.5,2.4l62.3,38.8
				C1216-2462.6,1217.9-2462.1,1219.8-2462.3z M1348.7-2154c1.5-0.4,92.3-28.6,92.3-28.6c1.7-0.4,3-1.7,3.5-3.5l37.5-108.9
				c0.9-1.9,0.4-4.3-1.3-5.6l-87.7-76.5c-1.3-1.3-3.2-1.7-5-1.1l-93.6,25.6c-1.7,0.4-3.2,1.7-3.7,3.5c0,0-36.2,108.3-36.8,110.2
				c-0.6,1.9-0.4,4.3,1.5,6.1c1.9,1.7,87.3,76.7,88.4,77.8C1344.8-2154,1347.2-2153.6,1348.7-2154z M1602.2-1950.8l-38.1-142.9
				c-1.3-4.5-5.2-7.4-9.5-7.4c-0.9,0-1.7,0-2.6,0.4l-159,43.5c-5.4,1.3-8.4,6.9-6.7,12.3l47.2,147.1c1.3,4.1,5.2,6.7,9.3,6.7
				c1.1,0,1.9-0.2,3-0.4l149.9-47.4C1600.6-1940.4,1603.5-1945.8,1602.2-1950.8z M1771-2271.7l-96.6-57.9l-2.4-1.5
				c-0.5-0.4-1.2-0.6-1.8-0.8c-2.6-0.8-5.6-0.1-7.6,1.9c-0.3,0.3-0.4,0.5-0.6,0.9l-77.4,109.2c-2,2.8-1.7,6.8,0.5,9.5l50.1,67.6
				c0.7,0.8,1.6,1.5,2.4,1.8l105,47.2c3,1.4,6.3,0.6,8.6-1.8c0.1-0.2,0.4-0.5,0.5-0.7l77.1-105.9c2.2-3,2-7.1-0.8-10l-55.7-58.5
				C1771.9-2271.1,1771.5-2271.6,1771-2271.7z M1672.1-2588c0,0-117.4-54.8-117.6-54.8c-0.6-0.2-1.5-0.4-2.4-0.4
				c-2.6,0-5,1.5-6.1,3.9l-60.4,119.1c-1.3,2.4-0.9,5.2,0.6,7.4l23.8,30.3c0.6,0.6,1.3,1.3,2.2,1.7l111.3,59.3
				c0.4,0.2,1.1,0.4,1.5,0.6c0.6,0.2,1.1,0.2,1.7,0.2c2.6,0,5-1.3,6.3-3.9l0.9-1.7l60.9-121.7c1.1-2.2,0.9-4.8-0.4-6.7l-19.3-30.8
				C1674.5-2586.5,1673.4-2587.4,1672.1-2588z"/>
		</g>
	</g>
</pattern>
<rect class="st2" width="3180.6" height="2690.2"/>
</svg>
