<?xml version="1.0" encoding="utf-8"?>
<!-- Generator: Adobe Illustrator 22.1.0, SVG Export Plug-In . SVG Version: 6.00 Build 0)  -->
<svg version="1.1" id="user" xmlns="http://www.w3.org/2000/svg" xmlns:xlink="http://www.w3.org/1999/xlink" x="0px" y="0px"
	 viewBox="0 0 234 219.3" style="enable-background:new 0 0 234 219.3;" xml:space="preserve">
<path id="user-dice" d="M233.2,154.1c-0.1-0.1-0.3-0.3-0.3-0.3l-38.5-33.6c-0.6-0.6-1.4-0.8-2.2-0.6l-41.6,11.3
	c-0.8,0.2-1.4,0.8-1.6,1.5c0,0-16.1,48.3-16.3,49c-0.3,0.8-0.2,1.9,0.6,2.6c0.4,0.4,39,34.4,39.2,34.6c0.5,0.4,1.3,0.8,2.2,0.5
	c0.2-0.1,41.1-12.7,41.1-12.7c0.8-0.2,1.3-0.8,1.6-1.5c0,0,16.4-47.9,16.6-48.3C234.1,156.1,233.9,154.9,233.2,154.1z M218,165.6
	l-2.9-11.1l6.3,4.1L218,165.6z M151.3,158.1l3.7,11.1l-8.1,2L151.3,158.1z M180.3,170.6l17.9-18.3l6.4,24.9L180.3,170.6z
	 M184.7,143.6l-16.2,16.4l-5.9-17.9L184.7,143.6z M159.2,184.4l2.3,10.9l-10.1-8.9L159.2,184.4z M197.1,191.6l-17.7,12.1l-3.7-17.9
	L197.1,191.6z"/>
</svg>
